<svg id="Capa_1" enable-background="new 0 0 512 512" height="512" viewBox="0 0 512 512" width="512" xmlns="http://www.w3.org/2000/svg"><g><g><g><path d="m75.386 117.173h-31.08c-2.761 0-5 2.239-5 5v35.001l41.08 10v-45.001c0-2.762-2.239-5-5-5z" fill="#ff8086"/><path d="m85.386 117.173h-18c2.761 0 5 2.239 5 5v45.001l18-10v-35.001c0-2.762-2.239-5-5-5z" fill="#ff646f"/><path d="m309.499 81.305h-117.998c-11.805 0-22.002 8.258-24.455 19.806l-15.794 74.366 198.495 20-15.793-94.366c-2.453-11.547-12.649-19.806-24.455-19.806z" fill="#77b3ec"/><path d="m344.954 101.112c-2.452-11.548-12.649-19.806-24.455-19.806h-30c11.806 0 22.002 8.258 24.455 19.806l15.794 74.366 19 10 11-10z" fill="#5e9ad8"/><path d="m359.808 412.39h-300.128v-236.912h301.067l14.031 97.01z" fill="#eaf3ff"/><path d="m299.342 145.925h-97.684c-2.761 0-5-2.239-5-5v-25.066c0-2.761 2.239-5 5-5h97.684c2.762 0 5 2.239 5 5v25.066c0 2.761-2.239 5-5 5z" fill="#eaf3ff"/><path d="m359.808 175.478h92.512v236.911h-92.512z" fill="#d5eaff"/><path d="m59.68 234.202h392.639v119.463h-392.639z" fill="#77b3ec"/><path d="m359.808 234.202h92.512v119.463h-92.512z" fill="#5e9ad8"/><path d="m310.342 110.859h-25c2.761 0 5 2.239 5 5v25.066c0 2.761-2.239 5-5 5h25c2.761 0 5-2.239 5-5v-25.066c0-2.761-2.239-5-5-5z" fill="#d5eaff"/><path d="m100.192 430.694h-82.692c-5.523 0-10-4.477-10-10v-253.521c0-5.523 4.477-10 10-10h82.692c5.523 0 10 4.477 10 10v253.521c0 5.523-4.477 10-10 10z" fill="#8b8089"/><path d="m112.192 157.173h-30c5.523 0 10 4.477 10 10v253.521c0 5.523-4.477 10-10 10h30c5.523 0 10-4.477 10-10v-253.521c0-5.522-4.477-10-10-10z" fill="#685e68"/><path d="m335.926 293.934c0 49.665-30.261 88.926-79.926 88.926-5.145 0-10.189.568-15.098-.262-42.476-7.181-74.828-44.144-74.828-88.664 0-43.457 30.825-79.714 71.803-88.099 5.854-1.198 11.915-.827 18.123-.827 49.665 0 79.926 39.261 79.926 88.926z" fill="#ffe077"/><path d="m256 204.008c-5.145 0-10.188.438-15.097 1.268 42.476 7.181 74.829 44.138 74.829 88.657s-32.353 81.476-74.829 88.657c4.909.83 9.952 1.268 15.097 1.268 49.665 0 89.926-40.261 89.926-89.926 0-49.663-40.261-89.924-89.926-89.924z" fill="#ffc344"/><circle cx="256" cy="293.934" fill="#77b3ec" r="59.732"/><circle cx="256" cy="293.934" fill="#eaf3ff" r="30.029"/><path d="m457.694 117.173h-31.08c-2.761 0-5 2.239-5 5v35.001l41.08 10v-45.001c0-2.762-2.239-5-5-5z" fill="#ff8086"/><path d="m467.694 117.173h-18c2.761 0 5 2.239 5 5v45.001l18-10v-35.001c0-2.762-2.239-5-5-5z" fill="#ff646f"/><path d="m477.5 430.694h-77.692c-5.523 0-10-4.477-10-10v-253.521c0-5.523 4.477-10 10-10h77.692c5.523 0 10 4.477 10 10v253.521c0 5.523-4.477 10-10 10z" fill="#8b8089"/><path d="m494.5 157.173h-30c5.523 0 10 4.477 10 10v253.521c0 5.523-4.477 10-10 10h30c5.523 0 10-4.477 10-10v-39.347l-10-79.892 10-94.934v-39.347c0-5.523-4.477-10.001-10-10.001z" fill="#685e68"/><path d="m457.154 381.347h17.346l13.799-94.411-13.799-80.415h-17.346c-5.523 0-10 4.477-10 10v154.827c0 5.522 4.477 9.999 10 9.999z" fill="#77b3ec"/><path d="m474.5 206.521h30v174.827h-30z" fill="#5e9ad8"/></g></g><g><path d="m256 361.166c37.072 0 67.231-30.16 67.231-67.232 0-37.071-30.16-67.231-67.231-67.231s-67.232 30.16-67.232 67.231c0 37.072 30.16 67.232 67.232 67.232zm0-119.464c28.8 0 52.231 23.431 52.231 52.231 0 28.801-23.431 52.232-52.231 52.232-28.801 0-52.232-23.432-52.232-52.232s23.431-52.231 52.232-52.231z"/><path d="m256 331.463c20.694 0 37.529-16.836 37.529-37.529s-16.836-37.528-37.529-37.528c-20.694 0-37.529 16.835-37.529 37.528s16.835 37.529 37.529 37.529zm0-60.058c12.423 0 22.529 10.106 22.529 22.528 0 12.423-10.106 22.529-22.529 22.529s-22.529-10.106-22.529-22.529c0-12.421 10.106-22.528 22.529-22.528z"/><path d="m310.342 103.359h-53.902c-4.142 0-7.5 3.357-7.5 7.5s3.358 7.5 7.5 7.5h51.401v20.065h-103.683v-20.065h19.596c4.142 0 7.5-3.357 7.5-7.5s-3.358-7.5-7.5-7.5h-22.096c-6.893 0-12.5 5.607-12.5 12.5v25.065c0 6.893 5.607 12.5 12.5 12.5h108.684c6.893 0 12.5-5.607 12.5-12.5v-25.065c0-6.892-5.608-12.5-12.5-12.5z"/><path d="m494.5 149.674h-14.306v-27.501c0-6.893-5.607-12.5-12.5-12.5h-41.08c-6.893 0-12.5 5.607-12.5 12.5v27.501h-14.306c-9.649 0-17.5 7.851-17.5 17.5v.805h-15.486l-14.532-68.424c-3.168-14.92-16.539-25.749-31.791-25.749h-128.998c-15.253 0-28.623 10.829-31.791 25.749l-14.532 68.424h-15.486v-.805c0-9.649-7.851-17.5-17.5-17.5h-14.306v-27.501c0-6.893-5.607-12.5-12.5-12.5h-41.08c-6.893 0-12.5 5.607-12.5 12.5v27.501h-14.306c-9.649 0-17.5 7.851-17.5 17.5v253.521c0 9.65 7.851 17.5 17.5 17.5h94.692c9.649 0 17.5-7.85 17.5-17.5v-.805h252.615v.805c0 9.65 7.851 17.5 17.5 17.5h94.693c9.649 0 17.5-7.85 17.5-17.5v-253.521c0-9.65-7.851-17.5-17.5-17.5zm-65.386-25.001h36.08v25.001h-36.08zm-255.54 169.261c0-45.45 36.976-82.426 82.426-82.426s82.426 36.976 82.426 82.426-36.976 82.426-82.426 82.426-82.426-36.976-82.426-82.426zm179.852 0c0-19.204-5.587-37.126-15.219-52.231h44.1v104.464h-44.101c9.632-15.106 15.22-33.029 15.22-52.233zm-179.043-191.264c1.706-8.033 8.905-13.864 17.118-13.864h128.998c8.213 0 15.412 5.831 17.118 13.864l13.87 65.309h-190.974zm207.925 80.309v43.724h-55.861c-17.753-18.594-42.77-30.194-70.447-30.194s-52.694 11.601-70.447 30.194h-55.861v-43.724zm-335.502-58.306h36.08v25.001h-36.08zm67.886 296.021c0 1.379-1.122 2.5-2.5 2.5h-94.692c-1.378 0-2.5-1.121-2.5-2.5v-253.52c0-1.379 1.122-2.5 2.5-2.5h94.692c1.378 0 2.5 1.121 2.5 2.5v122.538c0 4.143 3.358 7.5 7.5 7.5s7.5-3.357 7.5-7.5v-48.01h44.1c-9.631 15.105-15.219 33.028-15.219 52.231 0 19.204 5.588 37.127 15.219 52.232h-44.101v-23.768c0-4.143-3.358-7.5-7.5-7.5s-7.5 3.357-7.5 7.5v98.297zm15-15.804v-43.724h55.861c17.753 18.594 42.77 30.194 70.447 30.194 27.676 0 52.694-11.601 70.446-30.194h55.861v43.724zm364.808 18.304h-94.692c-1.378 0-2.5-1.121-2.5-2.5v-253.52c0-1.379 1.122-2.5 2.5-2.5h94.692c1.378 0 2.5 1.121 2.5 2.5v31.847h-39.846c-9.649 0-17.5 7.851-17.5 17.5v31.041c0 4.143 3.358 7.5 7.5 7.5s7.5-3.357 7.5-7.5v-31.042c0-1.379 1.122-2.5 2.5-2.5h39.846v159.827h-39.846c-1.378 0-2.5-1.121-2.5-2.5v-91.1c0-4.142-3.358-7.5-7.5-7.5s-7.5 3.358-7.5 7.5v91.1c0 9.649 7.851 17.5 17.5 17.5h39.846v31.847c0 1.379-1.122 2.5-2.5 2.5z"/></g></g></svg>